<svg width="1075" height="1075" viewBox="0 0 1075 1075" fill="none" xmlns="http://www.w3.org/2000/svg">
<g clip-path="url(#clip0_21_399)">
<rect width="1075" height="1075" fill="#212121"/>
<line x1="0.5" x2="0.5" y2="1901" stroke="white" stroke-opacity="0.1"/>
<line x1="25.4671" x2="25.4671" y2="1901" stroke="white" stroke-opacity="0.1"/>
<line x1="50.4342" x2="50.4342" y2="1901" stroke="white" stroke-opacity="0.1"/>
<line x1="75.4013" x2="75.4013" y2="1901" stroke="white" stroke-opacity="0.1"/>
<line y1="-0.5" x2="1901" y2="-0.5" transform="matrix(3.56463e-05 1 -1 3.40973e-05 99.8685 0)" stroke="white" stroke-opacity="0.1"/>
<line x1="125.404" x2="125.404" y2="1901" stroke="white" stroke-opacity="0.1"/>
<line x1="150.371" x2="150.371" y2="1901" stroke="white" stroke-opacity="0.1"/>
<line x1="175.338" x2="175.338" y2="1901" stroke="white" stroke-opacity="0.1"/>
<line x1="200.305" x2="200.305" y2="1901" stroke="white" stroke-opacity="0.1"/>
<line x1="225.272" x2="225.272" y2="1901" stroke="white" stroke-opacity="0.1"/>
<line x1="250.24" x2="250.24" y2="1901" stroke="white" stroke-opacity="0.1"/>
<line y1="-0.5" x2="1901" y2="-0.5" transform="matrix(-3.62423e-05 1 -1 -3.46673e-05 274.776 0)" stroke="white" stroke-opacity="0.1"/>
<line x1="300.243" x2="300.243" y2="1901" stroke="white" stroke-opacity="0.1"/>
<line x1="325.211" x2="325.211" y2="1901" stroke="white" stroke-opacity="0.1"/>
<line x1="350.178" x2="350.178" y2="1901" stroke="white" stroke-opacity="0.1"/>
<line x1="375.145" x2="375.145" y2="1901" stroke="white" stroke-opacity="0.1"/>
<line x1="400.112" x2="400.112" y2="1901" stroke="white" stroke-opacity="0.1"/>
<line x1="425.079" x2="425.079" y2="1901" stroke="white" stroke-opacity="0.1"/>
<line x1="450.046" x2="450.046" y2="1901" stroke="white" stroke-opacity="0.1"/>
<line x1="475.013" x2="475.013" y2="1901" stroke="white" stroke-opacity="0.1"/>
<line y1="-0.5" x2="1901" y2="-0.5" transform="matrix(3.56463e-05 1 -1 3.40973e-05 499.48 0)" stroke="white" stroke-opacity="0.1"/>
<line x1="525.016" x2="525.016" y2="1901" stroke="white" stroke-opacity="0.1"/>
<line x1="549.983" x2="549.983" y2="1901" stroke="white" stroke-opacity="0.1"/>
<line x1="574.95" x2="574.95" y2="1901" stroke="white" stroke-opacity="0.1"/>
<line x1="599.917" x2="599.917" y2="1901" stroke="white" stroke-opacity="0.1"/>
<line x1="624.884" x2="624.884" y2="1901" stroke="white" stroke-opacity="0.1"/>
<line x1="649.851" x2="649.851" y2="1901" stroke="white" stroke-opacity="0.1"/>
<line y1="-0.5" x2="1901" y2="-0.5" transform="matrix(-3.62423e-05 1 -1 -3.46673e-05 674.388 0)" stroke="white" stroke-opacity="0.1"/>
<line x1="699.855" x2="699.855" y2="1901" stroke="white" stroke-opacity="0.1"/>
<line x1="724.822" x2="724.822" y2="1901" stroke="white" stroke-opacity="0.1"/>
<line x1="749.789" x2="749.789" y2="1901" stroke="white" stroke-opacity="0.1"/>
<line x1="774.757" x2="774.757" y2="1901" stroke="white" stroke-opacity="0.1"/>
<line y1="-0.5" x2="1901" y2="-0.5" transform="matrix(3.56463e-05 1 -1 3.40973e-05 799.224 0)" stroke="white" stroke-opacity="0.1"/>
<line x1="824.759" x2="824.759" y2="1901" stroke="white" stroke-opacity="0.1"/>
<line x1="849.726" x2="849.726" y2="1901" stroke="white" stroke-opacity="0.1"/>
<line x1="874.693" x2="874.693" y2="1901" stroke="white" stroke-opacity="0.1"/>
<line x1="899.661" x2="899.661" y2="1901" stroke="white" stroke-opacity="0.1"/>
<line x1="924.628" x2="924.628" y2="1901" stroke="white" stroke-opacity="0.1"/>
<line x1="949.595" x2="949.595" y2="1901" stroke="white" stroke-opacity="0.1"/>
<line y1="-0.5" x2="1901" y2="-0.5" transform="matrix(-3.62423e-05 1 -1 -3.46673e-05 974.132 0)" stroke="white" stroke-opacity="0.1"/>
<line x1="999.599" x2="999.599" y2="1901" stroke="white" stroke-opacity="0.1"/>
<line x1="1024.57" x2="1024.57" y2="1901" stroke="white" stroke-opacity="0.1"/>
<line x1="1049.53" x2="1049.53" y2="1901" stroke="white" stroke-opacity="0.1"/>
<line y1="25.5" x2="1075" y2="25.5" stroke="white" stroke-opacity="0.1"/>
<line y1="50.5" x2="1075" y2="50.5" stroke="white" stroke-opacity="0.1"/>
<line y1="75.5" x2="1075" y2="75.5" stroke="white" stroke-opacity="0.1"/>
<line y1="100.5" x2="1075" y2="100.5" stroke="white" stroke-opacity="0.1"/>
<line y1="125.5" x2="1075" y2="125.5" stroke="white" stroke-opacity="0.1"/>
<line y1="150.5" x2="1075" y2="150.5" stroke="white" stroke-opacity="0.1"/>
<line y1="175.5" x2="1075" y2="175.5" stroke="white" stroke-opacity="0.1"/>
<line y1="200.5" x2="1075" y2="200.5" stroke="white" stroke-opacity="0.1"/>
<line y1="225.5" x2="1075" y2="225.5" stroke="white" stroke-opacity="0.1"/>
<line y1="250.5" x2="1075" y2="250.5" stroke="white" stroke-opacity="0.1"/>
<line y1="275.5" x2="1075" y2="275.5" stroke="white" stroke-opacity="0.1"/>
<line y1="300.5" x2="1075" y2="300.5" stroke="white" stroke-opacity="0.1"/>
<line y1="325.5" x2="1075" y2="325.5" stroke="white" stroke-opacity="0.1"/>
<line y1="350.5" x2="1075" y2="350.5" stroke="white" stroke-opacity="0.1"/>
<line y1="375.5" x2="1075" y2="375.5" stroke="white" stroke-opacity="0.1"/>
<line y1="400.5" x2="1075" y2="400.5" stroke="white" stroke-opacity="0.1"/>
<line y1="425.5" x2="1075" y2="425.5" stroke="white" stroke-opacity="0.1"/>
<line y1="450.5" x2="1075" y2="450.5" stroke="white" stroke-opacity="0.1"/>
<line y1="475.5" x2="1075" y2="475.5" stroke="white" stroke-opacity="0.1"/>
<line y1="500.5" x2="1075" y2="500.5" stroke="white" stroke-opacity="0.1"/>
<line y1="525.5" x2="1075" y2="525.5" stroke="white" stroke-opacity="0.1"/>
<line y1="550.5" x2="1075" y2="550.5" stroke="white" stroke-opacity="0.1"/>
<line y1="575.5" x2="1075" y2="575.5" stroke="white" stroke-opacity="0.1"/>
<line y1="600.5" x2="1075" y2="600.5" stroke="white" stroke-opacity="0.1"/>
<line y1="625.5" x2="1075" y2="625.5" stroke="white" stroke-opacity="0.1"/>
<line y1="650.5" x2="1075" y2="650.5" stroke="white" stroke-opacity="0.1"/>
<line y1="675.5" x2="1075" y2="675.5" stroke="white" stroke-opacity="0.1"/>
<line y1="700.5" x2="1075" y2="700.5" stroke="white" stroke-opacity="0.1"/>
<line y1="725.5" x2="1075" y2="725.5" stroke="white" stroke-opacity="0.1"/>
<line y1="750.5" x2="1075" y2="750.5" stroke="white" stroke-opacity="0.1"/>
<line y1="775.5" x2="1075" y2="775.5" stroke="white" stroke-opacity="0.1"/>
<line y1="800.5" x2="1075" y2="800.5" stroke="white" stroke-opacity="0.1"/>
<line y1="825.5" x2="1075" y2="825.5" stroke="white" stroke-opacity="0.1"/>
<line y1="850.5" x2="1075" y2="850.5" stroke="white" stroke-opacity="0.1"/>
<line y1="875.5" x2="1075" y2="875.5" stroke="white" stroke-opacity="0.1"/>
<line y1="900.5" x2="1075" y2="900.5" stroke="white" stroke-opacity="0.1"/>
<line y1="925.5" x2="1075" y2="925.5" stroke="white" stroke-opacity="0.1"/>
<line y1="950.5" x2="1075" y2="950.5" stroke="white" stroke-opacity="0.1"/>
<line y1="975.5" x2="1075" y2="975.5" stroke="white" stroke-opacity="0.1"/>
<line y1="1000.5" x2="1075" y2="1000.5" stroke="white" stroke-opacity="0.1"/>
<line y1="1025.5" x2="1075" y2="1025.5" stroke="white" stroke-opacity="0.1"/>
<line y1="1050.5" x2="1075" y2="1050.5" stroke="white" stroke-opacity="0.1"/>
<line y1="0.5" x2="1075" y2="0.5" stroke="white" stroke-opacity="0.1"/>
</g>
<defs>
<clipPath id="clip0_21_399">
<rect width="1075" height="1075" fill="white"/>
</clipPath>
</defs>
</svg>
