<svg width="372" height="785" viewBox="0 0 372 785" fill="none" xmlns="http://www.w3.org/2000/svg">
<rect x="8.5" y="8.5" width="355" height="768" rx="59.5" stroke="white" stroke-width="17"/>
<path d="M147.524 26.5974C141.893 27.7989 139.573 29.0358 136.911 32.1456C129.813 40.4856 132.953 53.5256 143.019 57.6956L145.476 58.7205L186.46 58.7205C217.274 58.7205 227.648 58.6144 228.262 58.2964C228.706 58.0844 230.037 57.4483 231.231 56.9182C232.767 56.2467 233.893 55.3986 235.258 53.879C241.4 46.988 241.161 37.4818 234.678 30.9441C233.756 30.0253 232.221 28.8591 231.197 28.3644C227.307 26.3854 227.443 26.3854 186.153 26.4207C165.268 26.4561 147.899 26.5267 147.524 26.5974Z" fill="white"/>
</svg>
